<?xml version="1.0" encoding="UTF-8"?>
<svg width="37px" height="36px" viewBox="0 0 37 36" version="1.1" xmlns="http://www.w3.org/2000/svg" xmlns:xlink="http://www.w3.org/1999/xlink">
    <!-- Generator: Sketch 52.5 (67469) - http://www.bohemiancoding.com/sketch -->
    <title>auction</title>
    <desc>Created with Sketch.</desc>
    <g id="App" stroke="none" stroke-width="1" fill="none" fill-rule="evenodd">
        <g id="quotes_BOP-Copy-54" transform="translate(-390.000000, -440.000000)" fill="#00E5E6">
            <g id="auction" transform="translate(390.000000, 439.500000)">
                <path d="M35.7695,17.966 L26.837,26.93 C26.546,27.221 26.165,27.368 25.784,27.368 C25.403,27.368 25.022,27.221 24.731,26.93 C24.2165,26.4125 24.185,25.625 24.581,25.043 L19.28,19.571 L3.0155,35.8985 C2.7245,36.1895 2.3435,36.3365 1.9625,36.3365 C1.5815,36.3365 1.202,36.1895 0.911,35.8985 C0.329,35.315 0.329,34.3685 0.911,33.785 L17.2055,17.4275 L11.9405,11.9915 C11.6495,12.278 11.2745,12.4235 10.8965,12.4235 C10.5155,12.4235 10.1345,12.278 9.8435,11.9855 C9.2615,11.402 9.2615,10.4555 9.8435,9.872 L18.776,0.9095 C19.358,0.326 20.3,0.3245 20.882,0.9095 C21.3965,1.4255 21.428,2.2115 21.0335,2.7935 L33.671,15.848 C34.253,15.2705 35.1905,15.2705 35.7695,15.8525 C36.3515,16.4375 36.3515,17.3825 35.7695,17.966 Z M18.965,4.946 L14.0465,9.8795 L26.648,22.892 L31.565,17.96 L18.965,4.946 Z M22.8065,33.347 L34.7165,33.347 C35.54,33.347 36.206,34.0175 36.206,34.8425 C36.206,35.6675 35.54,36.3365 34.7165,36.3365 L22.8065,36.3365 C21.983,36.3365 21.317,35.6675 21.317,34.8425 C21.317,34.0175 21.983,33.347 22.8065,33.347 Z" id="Shape"></path>
            </g>
        </g>
    </g>
</svg>