<?xml version="1.0" encoding="UTF-8"?>
<svg width="36px" height="36px" viewBox="0 0 36 36" version="1.1" xmlns="http://www.w3.org/2000/svg" xmlns:xlink="http://www.w3.org/1999/xlink">
    <!-- Generator: Sketch 52.5 (67469) - http://www.bohemiancoding.com/sketch -->
    <title>bandage-2</title>
    <desc>Created with Sketch.</desc>
    <g id="App" stroke="none" stroke-width="1" fill="none" fill-rule="evenodd">
        <g id="quotes_BOP-Copy-54" transform="translate(-389.000000, -618.000000)" fill="#00E5E6">
            <g id="bandage-2" transform="translate(389.000000, 618.000000)">
                <path d="M35.2805,14.181 C35.21,14.328 35.114,14.463 34.9985,14.58 L31.742,17.8635 L34.9985,21.1455 C35.114,21.2625 35.21,21.3975 35.2805,21.546 C35.3825,21.7545 37.7015,26.73 32.336,32.139 C29.4935,35.0085 26.768,35.6985 24.806,35.6985 C23.066,35.6985 21.9245,35.157 21.8285,35.109 C21.6815,35.037 21.548,34.9395 21.4325,34.824 L18.176,31.5405 L14.918,34.8255 C14.8595,34.884 14.7845,34.9095 14.72,34.9575 C14.6525,35.007 14.6015,35.07 14.5235,35.109 C14.516,35.1135 14.4605,35.1345 14.4395,35.145 C14.4335,35.148 14.426,35.151 14.42,35.154 C14.15,35.2755 13.112,35.7 11.5445,35.7 C9.5825,35.7 6.8585,35.0085 4.0145,32.142 C-1.351,26.733 0.9665,21.7575 1.0685,21.5475 C1.106,21.471 1.169,21.42 1.217,21.354 C1.265,21.285 1.2935,21.207 1.3535,21.1455 L4.6085,17.8635 L1.352,14.58 C1.2575,14.4855 1.2035,14.37 1.1405,14.2605 C1.1225,14.2275 1.085,14.2155 1.0685,14.181 C0.9665,13.971 -1.351,8.994 4.0145,3.585 C9.047,-1.491 13.7015,0.2565 14.4305,0.5775 C14.4305,0.5775 14.432,0.5775 14.432,0.5775 C14.4785,0.5985 14.51,0.6135 14.5235,0.6195 C14.5955,0.6555 14.642,0.7155 14.705,0.7605 C14.7755,0.81 14.8565,0.84 14.9195,0.903 L18.173,4.185 L21.4295,0.9015 C21.545,0.7845 21.6785,0.6885 21.8255,0.6165 C22.031,0.5145 26.9675,-1.8285 32.336,3.585 C37.7015,8.994 35.384,13.971 35.2805,14.181 Z M23.3045,32.508 C24.047,32.7585 26.9105,33.408 30.251,30.0375 C33.611,26.6505 32.9585,23.781 32.705,23.037 L29.657,19.9665 L20.261,29.439 L23.3045,32.508 Z M13.0475,3.2205 C12.314,2.97 9.449,2.31 6.0995,5.688 C2.7635,9.048 3.3965,11.928 3.653,12.696 L6.6935,15.7605 L16.088,6.288 L13.0475,3.2205 Z M30.251,5.688 C26.8895,2.298 24.041,2.958 23.3045,3.2145 L7.7495,18.9 C7.745,18.9045 7.7435,18.912 7.739,18.9165 C7.733,18.921 7.727,18.9225 7.7225,18.927 L3.65,23.034 C3.4025,23.7735 2.75,26.6625 6.0995,30.0405 C9.4325,33.399 12.287,32.763 13.049,32.505 L28.61,16.8165 C28.6115,16.815 28.6115,16.8135 28.613,16.8135 C28.6145,16.812 28.616,16.812 28.6175,16.8105 L32.702,12.693 C32.9495,11.946 33.5945,9.057 30.251,5.688 Z M24.116,19.35 C23.3015,19.35 22.6355,18.6855 22.6355,17.8635 C22.6355,17.043 23.2865,16.3785 24.101,16.3785 L24.116,16.3785 C24.929,16.3785 25.5905,17.043 25.5905,17.8635 C25.5905,18.6855 24.929,19.35 24.116,19.35 Z M21.1685,16.3785 C20.3525,16.3785 19.6865,15.7125 19.6865,14.892 C19.6865,14.07 20.339,13.4055 21.152,13.4055 L21.1685,13.4055 C21.9815,13.4055 22.6415,14.07 22.6415,14.892 C22.6415,15.7125 21.9815,16.3785 21.1685,16.3785 Z M18.2195,13.4055 C17.405,13.4055 16.739,12.7395 16.739,11.919 C16.739,11.0985 17.39,10.4325 18.2045,10.4325 L18.2195,10.4325 C19.0325,10.4325 19.694,11.0985 19.694,11.919 C19.694,12.7395 19.0325,13.4055 18.2195,13.4055 Z M15.272,16.3785 C14.4575,16.3785 13.79,15.7125 13.79,14.892 C13.79,14.07 14.4425,13.4055 15.2555,13.4055 L15.272,13.4055 C16.085,13.4055 16.745,14.07 16.745,14.892 C16.745,15.7125 16.085,16.3785 15.272,16.3785 Z M12.323,19.35 C11.5085,19.35 10.8425,18.6855 10.8425,17.8635 C10.8425,17.043 11.495,16.3785 12.308,16.3785 L12.323,16.3785 C13.136,16.3785 13.7975,17.043 13.7975,17.8635 C13.7975,18.6855 13.136,19.35 12.323,19.35 Z M15.2555,19.35 L15.272,19.35 C16.085,19.35 16.745,20.016 16.745,20.8365 C16.745,21.6585 16.085,22.323 15.272,22.323 C14.4575,22.323 13.79,21.6585 13.79,20.8365 C13.79,20.016 14.4425,19.35 15.2555,19.35 Z M18.2045,22.323 L18.2195,22.323 C19.0325,22.323 19.694,22.989 19.694,23.8095 C19.694,24.63 19.0325,25.296 18.2195,25.296 C17.405,25.296 16.739,24.63 16.739,23.8095 C16.739,22.989 17.39,22.323 18.2045,22.323 Z M18.2195,19.35 C17.405,19.35 16.739,18.6855 16.739,17.8635 C16.739,17.043 17.39,16.3785 18.2045,16.3785 L18.2195,16.3785 C19.0325,16.3785 19.694,17.043 19.694,17.8635 C19.694,18.6855 19.0325,19.35 18.2195,19.35 Z M21.152,19.35 L21.1685,19.35 C21.9815,19.35 22.6415,20.016 22.6415,20.8365 C22.6415,21.6585 21.9815,22.323 21.1685,22.323 C20.3525,22.323 19.6865,21.6585 19.6865,20.8365 C19.6865,20.016 20.339,19.35 21.152,19.35 Z" id="Shape"></path>
            </g>
        </g>
    </g>
</svg>