<?xml version="1.0" encoding="UTF-8"?>
<svg width="36px" height="23px" viewBox="0 0 36 23" version="1.1" xmlns="http://www.w3.org/2000/svg" xmlns:xlink="http://www.w3.org/1999/xlink">
    <!-- Generator: Sketch 52.5 (67469) - http://www.bohemiancoding.com/sketch -->
    <title>banknote-1</title>
    <desc>Created with Sketch.</desc>
    <g id="App" stroke="none" stroke-width="1" fill="none" fill-rule="evenodd">
        <g id="quotes_BOP-Copy-54" transform="translate(-390.000000, -1331.000000)" fill="#00E5E6">
            <g id="banknote-1" transform="translate(390.000000, 1331.500000)">
                <path d="M34.5,22.5 L1.5,22.5 C0.6705,22.5 0,21.828 0,21 L0,1.5 C0,0.672 0.6705,0 1.5,0 L34.5,0 C35.3295,0 36,0.672 36,1.5 L36,21 C36,21.828 35.3295,22.5 34.5,22.5 Z M33,3 L3,3 L3,19.5 L33,19.5 L33,3 Z M6,15 L7.5,15 C8.3295,15 9,15.672 9,16.5 C9,17.328 8.3295,18 7.5,18 L6,18 C5.1705,18 4.5,17.328 4.5,16.5 C4.5,15.672 5.1705,15 6,15 Z M18.051,4.401 C21.3315,4.401 24,7.4445 24,11.1885 C24,14.9325 21.3315,17.979 18.051,17.979 C14.7705,17.979 12.099,14.9325 12.099,11.1885 C12.099,7.4445 14.7705,4.401 18.051,4.401 Z M18.051,14.9775 C19.677,14.9775 21,13.278 21,11.1885 C21,9.1005 19.677,7.3995 18.051,7.3995 C16.4235,7.3995 15.099,9.1005 15.099,11.1885 C15.099,13.278 16.4235,14.9775 18.051,14.9775 Z M28.5,4.5 L30,4.5 C30.8295,4.5 31.5,5.172 31.5,6 C31.5,6.828 30.8295,7.5 30,7.5 L28.5,7.5 C27.6705,7.5 27,6.828 27,6 C27,5.172 27.6705,4.5 28.5,4.5 Z" id="Shape"></path>
            </g>
        </g>
    </g>
</svg>