<?xml version="1.0" encoding="UTF-8"?>
<svg width="39px" height="30px" viewBox="0 0 39 30" version="1.1" xmlns="http://www.w3.org/2000/svg" xmlns:xlink="http://www.w3.org/1999/xlink">
    <!-- Generator: Sketch 52.5 (67469) - http://www.bohemiancoding.com/sketch -->
    <title>car</title>
    <desc>Created with Sketch.</desc>
    <g id="App" stroke="none" stroke-width="1" fill="none" fill-rule="evenodd">
        <g id="quotes_BOP-Copy-54" transform="translate(-390.000000, -1661.000000)" fill="#00E5E6">
            <g id="car" transform="translate(390.000000, 1661.000000)">
                <path d="M37.5,12 L35.2785,12 C35.2785,12.0135 35.283,12.027 35.283,12.0405 C36.534,12.234 37.5,13.347 37.5,14.7 L37.5,24.3 C37.5,25.788 36.3345,27 34.9005,27 L34.5,27 L34.5,28.5 C34.5,29.328 33.8295,30 33,30 L27,30 C26.1705,30 25.5,29.328 25.5,28.5 L25.5,27 L13.5,27 L13.5,28.5 C13.5,29.328 12.8295,30 12,30 L6,30 C5.1705,30 4.5,29.328 4.5,28.5 L4.5,27 L4.0995,27 C2.6655,27 1.5,25.788 1.5,24.3 L1.5,14.7 C1.5,13.347 2.466,12.234 3.717,12.0405 C3.717,12.027 3.7215,12.0135 3.7215,12 L1.5,12 C0.6705,12 0,11.328 0,10.5 C0,9.672 0.6705,9 1.5,9 L4.5,9 C4.524,9 4.5435,9.012 4.566,9.0135 L6.72,2.1555 C7.107,0.927 8.3475,0 9.6,0 L29.4,0 C30.654,0 31.893,0.927 32.2785,2.1555 L34.434,9.0135 C34.4565,9.012 34.476,9 34.5,9 L37.5,9 C38.3295,9 39,9.672 39,10.5 C39,11.328 38.3295,12 37.5,12 Z M29.4165,3.0555 L9.6,3 L6.7725,12 L32.2275,12 L29.4165,3.0555 Z M34.5,15 L4.5,15 L4.5,24 L34.5,24 L34.5,15 Z M9.75,16.5 C10.9905,16.5 12,17.5095 12,18.7515 C12,19.992 10.9905,21 9.75,21 C8.5095,21 7.5,19.992 7.5,18.7515 C7.5,17.5095 8.5095,16.5 9.75,16.5 Z M29.25,16.5 C30.4905,16.5 31.5,17.5095 31.5,18.7515 C31.5,19.992 30.4905,21 29.25,21 C28.0095,21 27,19.992 27,18.7515 C27,17.5095 28.0095,16.5 29.25,16.5 Z" id="Shape"></path>
            </g>
        </g>
    </g>
</svg>