<?xml version="1.0" encoding="UTF-8"?>
<svg width="36px" height="30px" viewBox="0 0 36 30" version="1.1" xmlns="http://www.w3.org/2000/svg" xmlns:xlink="http://www.w3.org/1999/xlink">
    <!-- Generator: Sketch 52.5 (67469) - http://www.bohemiancoding.com/sketch -->
    <title>cloud-locked</title>
    <desc>Created with Sketch.</desc>
    <g id="App" stroke="none" stroke-width="1" fill="none" fill-rule="evenodd">
        <g id="quotes_BOP-Copy-54" transform="translate(-393.000000, -2073.000000)" fill="#00E5E6">
            <g id="cloud-locked" transform="translate(393.000000, 2073.000000)">
                <path d="M34.5,18 C33.672,18 33,17.328 33,16.5 C33,12.6 29.793,9.5445 25.6995,9.5445 L25.305,9.5685 C24.6105,9.6405 23.958,9.234 23.7255,8.577 C22.5465,5.241 19.3605,3 15.7995,3 C11.169,3 7.401,6.732 7.401,11.3175 C7.401,11.7015 7.434,12.0885 7.5,12.507 C7.62,13.2345 7.1895,13.9425 6.4875,14.172 C4.4025,14.856 3,16.7775 3,18.9555 C3,21.7365 5.2875,24 8.1,24 L16.5,24 C17.328,24 18,24.6705 18,25.5 C18,26.3295 17.328,27 16.5,27 L8.1,27 C3.6345,27 0,23.391 0,18.9555 C0,15.894 1.731,13.149 4.4115,11.793 C4.404,11.634 4.401,11.475 4.401,11.3175 C4.401,5.0775 9.5145,0 15.7995,0 C20.256,0 24.2805,2.592 26.1345,6.5535 C31.701,6.7665 36,11.058 36,16.5 C36,17.328 35.328,18 34.5,18 Z M22.5,21 L22.5,19.5 C22.5,17.019 24.5175,15 26.997,15 C29.4795,15 31.5,17.019 31.5,19.5 L31.5,20.994 C31.5,20.997 31.4985,20.9985 31.4985,21 L31.5,21 C32.328,21 33,21.6705 33,22.5 L33,28.5 C33,29.3295 32.328,30 31.5,30 L22.5,30 C21.672,30 21,29.3295 21,28.5 L21,22.5 C21,21.6705 21.672,21 22.5,21 Z M28.5,20.994 L28.5,19.5 C28.5,18.672 27.825,18 26.997,18 C26.172,18 25.5,18.672 25.5,19.5 L25.5,21 L28.5015,21 C28.5015,20.9985 28.5,20.997 28.5,20.994 Z M24,27 L30,27 L30,24 L24,24 L24,27 Z" id="Shape"></path>
            </g>
        </g>
    </g>
</svg>