<svg width="41" height="41" xmlns="http://www.w3.org/2000/svg" xmlns:xlink="http://www.w3.org/1999/xlink">
  <defs>
    <path d="M20 40C8.954 40 0 31.046 0 20S8.954 0 20 0s20 8.954 20 20-8.954 20-20 20zm0-11.818a8.182 8.182 0 1 0 0-16.364 8.182 8.182 0 0 0 0 16.364z" id="a"/>
  </defs>
  <g transform="rotate(45 19.799 20.485)" fill="none" fill-rule="evenodd">
    <mask id="b" fill="#fff">
      <use xlink:href="#a"/>
    </mask>
    <path stroke="#FD337D" stroke-width="2" d="M20 39c10.493 0 19-8.507 19-19S30.493 1 20 1 1 9.507 1 20s8.507 19 19 19zm0-9.818a9.182 9.182 0 1 1 0-18.364 9.182 9.182 0 0 1 0 18.364z"/>
    <g mask="url(#b)" fill="#0D00FF" fill-rule="nonzero">
      <g transform="translate(19.413 -.626)">
        <rect width="1.818" height="14.545"/>
        <rect y="27.273" width="1.818" height="14.545"/>
      </g>
    </g>
    <g mask="url(#b)" fill="#0D00FF" fill-rule="nonzero">
      <g transform="rotate(90 10.666 30.02)">
        <rect width="1.818" height="14.545"/>
        <rect y="27.273" width="1.818" height="14.545"/>
      </g>
    </g>
  </g>
</svg>
