<svg width="40" height="40" xmlns="http://www.w3.org/2000/svg">
  <g transform="translate(-9 -9)" fill="none" fill-rule="evenodd">
    <circle stroke="#FD337D" stroke-width="2" transform="rotate(45 29 29)" cx="29" cy="29" r="19"/>
    <g fill="#0D00FF">
      <path d="M32.557 28.07c-2.869 2.304-2.713 4.905-2.704 5.014a.856.856 0 0 1-.856.916.851.851 0 0 1-.852-.772c-.013-.144-.276-3.58 3.333-6.48 1.301-1.045 1.808-2.06 1.808-3.617 0-2.443-1.924-4.43-4.288-4.43-2.402 0-4.284 1.867-4.284 4.252 0 .47-.384.85-.857.85a.854.854 0 0 1-.857-.85C23 19.615 25.635 17 28.998 17 32.308 17 35 19.75 35 23.131c0 2.085-.73 3.562-2.443 4.938z" stroke="#0D00FF" stroke-width=".5"/>
      <path d="M29 37c1.103 0 2 .898 2 2 0 1.102-.897 2-2 2s-2-.898-2-2c0-1.102.897-2 2-2z"/>
    </g>
  </g>
</svg>
