<?xml version="1.0" encoding="UTF-8"?>
<svg width="36px" height="33px" viewBox="0 0 36 33" version="1.1" xmlns="http://www.w3.org/2000/svg" xmlns:xlink="http://www.w3.org/1999/xlink">
    <!-- Generator: Sketch 52.5 (67469) - http://www.bohemiancoding.com/sketch -->
    <title>shop-1</title>
    <desc>Created with Sketch.</desc>
    <g id="App" stroke="none" stroke-width="1" fill="none" fill-rule="evenodd">
        <g id="quotes_BOP-Copy-54" transform="translate(-390.000000, -943.000000)" fill="#00E5E6">
            <g id="shop-1" transform="translate(390.000000, 943.000000)">
                <path d="M34.2645,15.201 L34.2645,29.892 C34.2645,31.5405 32.928,32.8815 31.2855,32.8815 L4.4775,32.8815 C2.8365,32.8815 1.4985,31.5405 1.4985,29.892 L1.4985,15.201 C0.66,14.4495 0.1245,13.4145 0.042,12.2595 C0.039,12.2475 0.0405,12.234 0.0375,12.2205 C0.0315,12.1335 0.0105,12.051 0.0105,11.9625 C0.0105,11.9085 0.0345,11.862 0.0405,11.8095 C0.0465,11.757 0.0315,11.7075 0.042,11.6565 L2.226,1.197 C2.2365,1.149 2.268,1.113 2.283,1.0665 C2.313,0.966 2.352,0.876 2.4015,0.786 C2.448,0.705 2.496,0.63 2.5545,0.5595 C2.6175,0.483 2.685,0.42 2.7615,0.357 C2.835,0.2985 2.9055,0.249 2.988,0.204 C3.0735,0.1575 3.1605,0.1245 3.255,0.096 C3.348,0.066 3.441,0.048 3.54,0.0375 C3.5895,0.033 3.633,0.009 3.684,0.009 L32.079,0.009 C32.1285,0.009 32.169,0.0315 32.217,0.036 C32.316,0.0465 32.409,0.066 32.5035,0.0945 C32.598,0.123 32.685,0.156 32.7705,0.201 C32.8515,0.2445 32.9235,0.2955 32.9955,0.3525 C33.072,0.4155 33.1425,0.4785 33.2055,0.555 C33.2655,0.6255 33.312,0.7005 33.3585,0.7815 C33.408,0.87 33.4485,0.96 33.48,1.059 C33.4935,1.104 33.525,1.1385 33.5355,1.1865 L35.7195,11.271 C35.7615,11.463 35.7585,11.6535 35.7285,11.8365 C35.7315,11.88 35.754,11.9175 35.754,11.9625 C35.754,13.2375 35.1765,14.3835 34.2645,15.201 Z M22.35,29.904 L31.5,29.91 L31.5,16.395 C31.329,16.413 31.1625,16.4445 30.9855,16.4445 C29.715,16.4445 28.5645,15.9675 27.7095,15.201 C26.8545,15.9675 25.704,16.4445 24.4335,16.4445 C23.6835,16.4445 22.9815,16.266 22.35,15.9735 L22.35,29.904 Z M4.4775,29.892 L19.5,29.9025 L19.5,16.1595 C18.9915,16.3335 18.4515,16.4445 17.88,16.4445 C16.6095,16.4445 15.459,15.9675 14.604,15.201 C13.749,15.9675 12.5985,16.4445 11.328,16.4445 C10.0575,16.4445 8.907,15.9675 8.052,15.201 C7.197,15.9675 6.0465,16.4445 4.7745,16.4445 C4.6725,16.4445 4.578,16.422 4.4775,16.416 L4.4775,29.892 Z M4.7745,13.4565 C5.76,13.4565 6.564,12.786 6.564,11.9625 C6.564,11.1375 7.23,10.467 8.0535,10.467 C8.8755,10.467 9.5415,11.1375 9.5415,11.9625 C9.5415,12.786 10.344,13.4565 11.328,13.4565 C12.312,13.4565 13.1145,12.786 13.1145,11.9625 C13.1145,11.1375 13.7805,10.467 14.604,10.467 C15.4275,10.467 16.0935,11.1375 16.0935,11.9625 C16.0935,12.786 16.8945,13.4565 17.88,13.4565 C18.8655,13.4565 19.6695,12.786 19.6695,11.9625 C19.6695,11.1375 20.3355,10.467 21.159,10.467 C21.981,10.467 22.647,11.1375 22.647,11.9625 C22.647,12.786 23.4495,13.4565 24.4335,13.4565 C25.419,13.4565 26.22,12.786 26.22,11.9625 C26.22,11.1375 26.886,10.467 27.7095,10.467 C28.533,10.467 29.199,11.1375 29.199,11.9625 C29.199,12.786 30,13.4565 30.9855,13.4565 C31.9725,13.4565 32.775,12.786 32.775,11.9625 C32.775,11.9235 32.7945,11.8905 32.7975,11.853 L30.8595,2.91 L4.911,2.91 L3.006,12.033 C3.0525,12.822 3.819,13.4565 4.7745,13.4565 Z M26.817,23.916 L23.8395,23.916 L23.8395,20.9265 L26.817,20.9265 L26.817,23.916 Z" id="Shape"></path>
            </g>
        </g>
    </g>
</svg>