<?xml version="1.0" encoding="UTF-8"?>
<svg width="36px" height="34px" viewBox="0 0 36 34" version="1.1" xmlns="http://www.w3.org/2000/svg" xmlns:xlink="http://www.w3.org/1999/xlink">
    <!-- Generator: Sketch 52.5 (67469) - http://www.bohemiancoding.com/sketch -->
    <title>smartphone-laptop</title>
    <desc>Created with Sketch.</desc>
    <g id="App" stroke="none" stroke-width="1" fill="none" fill-rule="evenodd">
        <g id="quotes_BOP-Copy-54" transform="translate(-390.000000, -1136.000000)" fill="#00E5E6">
            <g id="smartphone-laptop" transform="translate(390.000000, 1136.500000)">
                <path d="M31.9125,33 L25.0845,33 C22.8315,33 21,31.227 21,29.046 L21,12.9555 C21,10.7745 22.8315,9 25.0845,9 L31.9125,9 C34.167,9 36,10.7745 36,12.9555 L36,29.046 C36,31.227 34.167,33 31.9125,33 Z M33,12.9555 C33,12.438 32.502,12 31.9125,12 L25.0845,12 C24.4965,12 24,12.438 24,12.9555 L24,29.046 C24,29.562 24.4965,30 25.0845,30 L31.9125,30 C32.502,30 33,29.562 33,29.046 L33,12.9555 Z M27,25.5 L30,25.5 L30,28.5 L27,28.5 L27,25.5 Z M28.5,16.5 C28.11,16.5 27.72,16.335 27.435,16.065 C27.165,15.7785 27,15.405 27,15 C27,14.61 27.165,14.22 27.435,13.935 C27.99,13.38 29.01,13.38 29.565,13.935 C29.835,14.22 30,14.61 30,15 C30,15.39 29.835,15.7785 29.565,16.065 C29.28,16.335 28.89,16.5 28.5,16.5 Z M31.5,7.5 C30.672,7.5 30,6.8295 30,6 L30,3 L4.5,3 L4.5,21 L18,21 C18.828,21 19.5,21.6705 19.5,22.5 C19.5,23.3295 18.828,24 18,24 L3,24 L3,25.5 L18,25.5 C18.828,25.5 19.5,26.1705 19.5,27 C19.5,27.828 18.828,28.5 18,28.5 L2.6265,28.5 C1.179,28.5 0,27.3225 0,25.875 L0,22.5 C0,21.6705 0.672,21 1.5,21 L1.5,2.667 C1.5,1.197 2.664,0 4.095,0 L30.405,0 C31.836,0 33,1.197 33,2.667 L33,6 C33,6.8295 32.328,7.5 31.5,7.5 Z" id="Shape"></path>
            </g>
        </g>
    </g>
</svg>