<?xml version="1.0" encoding="UTF-8"?>
<svg width="18px" height="18px" viewBox="0 0 18 18" version="1.1" xmlns="http://www.w3.org/2000/svg" xmlns:xlink="http://www.w3.org/1999/xlink">
    <!-- Generator: Sketch 52.5 (67469) - http://www.bohemiancoding.com/sketch -->
    <title>Shape Copy</title>
    <desc>Created with Sketch.</desc>
    <g id="App" stroke="none" stroke-width="1" fill="none" fill-rule="evenodd">
        <g id="quotes_BOP-Copy-70" transform="translate(-177.000000, -610.000000)" fill="#00E5E6">
            <path d="M186,628 C181.03725,628 177,623.96275 177,619 C177,614.03725 181.03725,610 186,610 C190.96275,610 195,614.03725 195,619 C195,623.96275 190.96275,628 186,628 Z M186,611.5 C181.8645,611.5 178.5,614.8645 178.5,619 C178.5,623.1355 181.8645,626.5 186,626.5 C190.1355,626.5 193.5,623.1355 193.5,619 C193.5,614.8645 190.1355,611.5 186,611.5 Z M187.79175,619.258 C186.705,620.13775 186.7455,621.112 186.74775,621.1525 C186.771,621.56125 186.462,621.919 186.054,621.949 C186.0345,621.9505 186.0165,621.95125 185.99775,621.95125 C185.613,621.95125 185.2875,621.66325 185.253,621.274 C185.247,621.202 185.11575,619.49425 186.8475,618.09175 C187.329,617.7025 187.5,617.3605 187.5,616.78825 C187.5,615.91675 186.82725,615.20725 186,615.20725 C185.145,615.20725 184.5,615.85225 184.5,616.70725 C184.5,617.122 184.164,617.45725 183.75,617.45725 C183.336,617.45725 183,617.122 183,616.70725 C183,615.02575 184.31775,613.708 186,613.708 C187.6545,613.708 189,615.0895 189,616.78825 C189,617.8195 188.62725,618.5815 187.79175,619.258 Z M186.12375,622.7395 C186.53175,622.81 186.80925,623.17675 186.73875,623.5855 L186.732,623.6275 C186.669,623.992 186.35175,624.25 185.99325,624.25 C185.95125,624.25 185.9085,624.24625 185.865,624.23875 C185.457,624.16825 185.18325,623.7805 185.25375,623.3725 C185.32425,622.9645 185.7135,622.66825 186.12375,622.7395 Z" id="Shape-Copy"></path>
        </g>
    </g>
</svg>